<?xml version="1.0" encoding="utf-8"?>
<!-- Generator: Adobe Illustrator 14.0.0, SVG Export Plug-In . SVG Version: 6.00 Build 43363)  -->
<svg version="1.2" baseProfile="tiny" id="Ebene_2" xmlns="http://www.w3.org/2000/svg" xmlns:xlink="http://www.w3.org/1999/xlink"
	 x="0px" y="0px" width="283.464px" height="255.118px" viewBox="0 0 283.464 255.118" xml:space="preserve">
<path d="M155.906,85.04c0-7.828,6.345-14.174,14.173-14.174h42.52v113.386c0,15.655,12.691,28.346,28.347,28.346h14.173
	c7.827,0,14.173,6.346,14.173,14.173v14.173h-63.779c-27.397,0-49.606-22.209-49.606-49.606L155.906,85.04z"/>
<path d="M14.173,240.945h63.78c27.397,0,49.606-22.209,49.606-49.606l0-120.472c0-15.656,12.691-28.347,28.347-28.347h56.693V28.346
	c0-7.828-6.346-14.173-14.173-14.173h-77.953c-27.397,0-49.606,22.209-49.606,49.606v120.473c0,15.655-12.691,28.346-28.346,28.346
	H28.347c-7.828,0-14.173,6.346-14.173,14.173V240.945"/>
</svg>
