<?xml version="1.0" encoding="UTF-8" standalone="no"?>
<!-- Generator: Adobe Illustrator 14.0.0, SVG Export Plug-In . SVG Version: 6.00 Build 43363)  -->

<svg
   xmlns:dc="http://purl.org/dc/elements/1.1/"
   xmlns:cc="http://creativecommons.org/ns#"
   xmlns:rdf="http://www.w3.org/1999/02/22-rdf-syntax-ns#"
   xmlns:svg="http://www.w3.org/2000/svg"
   xmlns="http://www.w3.org/2000/svg"
   xmlns:sodipodi="http://sodipodi.sourceforge.net/DTD/sodipodi-0.dtd"
   xmlns:inkscape="http://www.inkscape.org/namespaces/inkscape"
   version="1.2"
   id="Ebene_2"
   x="0px"
   y="0px"
   width="255.119"
   height="226.772"
   viewBox="0 0 255.11901 226.77201"
   xml:space="preserve"
   inkscape:version="0.91 r13725"
   sodipodi:docname="stefan-loehers.svg"><metadata
     id="metadata11"><rdf:RDF><cc:Work
         rdf:about=""><dc:format>image/svg+xml</dc:format><dc:type
           rdf:resource="http://purl.org/dc/dcmitype/StillImage" /><dc:title></dc:title></cc:Work></rdf:RDF></metadata><defs
     id="defs9" /><sodipodi:namedview
     pagecolor="#ffffff"
     bordercolor="#666666"
     borderopacity="1"
     objecttolerance="10"
     gridtolerance="10"
     guidetolerance="10"
     inkscape:pageopacity="0"
     inkscape:pageshadow="2"
     inkscape:window-width="640"
     inkscape:window-height="480"
     id="namedview7"
     showgrid="false"
     fit-margin-top="0"
     fit-margin-left="0"
     fit-margin-right="0"
     fit-margin-bottom="0"
     inkscape:zoom="0.92506214"
     inkscape:cx="127.55899"
     inkscape:cy="113.386"
     inkscape:window-x="45"
     inkscape:window-y="34"
     inkscape:window-maximized="0"
     inkscape:current-layer="Ebene_2" /><path
     d="m 141.733,70.867 c 0,-7.828 6.345,-14.174 14.173,-14.174 l 42.52,0 0,113.386 c 0,15.655 12.691,28.346 28.347,28.346 l 14.173,0 c 7.827,0 14.173,6.346 14.173,14.173 l 0,14.173 -63.779,0 c -27.397,0 -49.606,-22.209 -49.606,-49.606 L 141.733,70.867 Z"
     id="path3"
     inkscape:connector-curvature="0" /><path
     d="m 0,226.772 63.78,0 c 27.397,0 49.606,-22.209 49.606,-49.606 l 0,-120.472 c 0,-15.656 12.691,-28.347 28.347,-28.347 l 56.693,0 0,-14.174 C 198.426,6.345 192.08,0 184.253,0 L 106.3,0 C 78.903,0 56.694,22.209 56.694,49.606 l 0,120.473 c 0,15.655 -12.691,28.346 -28.346,28.346 l -14.174,0 c -7.828,0 -14.173,6.346 -14.173,14.173 l 0,14.174"
     id="path5"
     inkscape:connector-curvature="0" /></svg>