
<svg fill="white" xmlns="http://www.w3.org/2000/svg"  viewBox="0 0 64 64" width="48px" height="48px"><path d="M21.495 39.143h-5.769c-.347 0-.607-.157-.751-.39-.153-.247-.161-.567 0-.879l6.13-10.749c.006-.014.006-.019 0-.033l-3.9-6.709c-.164-.317-.187-.631-.034-.879.144-.239.437-.363.784-.363h5.77c.884 0 1.319.569 1.604 1.079 0 0 3.944 6.833 3.967 6.871-.233.41-6.227 10.941-6.227 10.941C22.775 38.564 22.358 39.143 21.495 39.143zM49.02 13.259L36.248 35.841c-.007.016-.007.027 0 .037l8.131 14.863c.16.32.167.643.013.89C44.244 51.869 43.977 52 43.627 52h-5.761c-.881 0-1.326-.586-1.61-1.101 0 0-8.177-14.997-8.199-15.036C28.465 35.14 40.891 13.1 40.891 13.1c.309-.554.686-1.1 1.544-1.1h5.831c.346 0 .62.13.766.37C49.184 12.616 49.178 12.937 49.02 13.259z"/></svg>