<?xml version="1.0" encoding="UTF-8" standalone="no"?>
<!-- Generator: Adobe Illustrator 15.0.0, SVG Export Plug-In . SVG Version: 6.00 Build 0)  -->

<svg
   xmlns:dc="http://purl.org/dc/elements/1.1/"
   xmlns:cc="http://creativecommons.org/ns#"
   xmlns:rdf="http://www.w3.org/1999/02/22-rdf-syntax-ns#"
   xmlns:svg="http://www.w3.org/2000/svg"
   xmlns="http://www.w3.org/2000/svg"
   xmlns:sodipodi="http://sodipodi.sourceforge.net/DTD/sodipodi-0.dtd"
   xmlns:inkscape="http://www.inkscape.org/namespaces/inkscape"
   version="1.2"
   x="0px"
   y="0px"
   width="564.88898"
   height="227.05499"
   viewBox="0 0 564.88897 227.05499"
   xml:space="preserve"
   id="svg2"
   inkscape:version="0.91 r13725"
   sodipodi:docname="stefan-white.svg"><metadata
     id="metadata50"><rdf:RDF><cc:Work
         rdf:about=""><dc:format>image/svg+xml</dc:format><dc:type
           rdf:resource="http://purl.org/dc/dcmitype/StillImage" /><dc:title></dc:title></cc:Work></rdf:RDF></metadata><defs
     id="defs48" /><sodipodi:namedview
     pagecolor="#ffffff"
     bordercolor="#666666"
     borderopacity="1"
     objecttolerance="10"
     gridtolerance="10"
     guidetolerance="10"
     inkscape:pageopacity="0"
     inkscape:pageshadow="2"
     inkscape:window-width="1873"
     inkscape:window-height="1176"
     id="namedview46"
     showgrid="false"
     inkscape:zoom="0.73241729"
     inkscape:cx="-87.816549"
     inkscape:cy="4.2966006"
     inkscape:window-x="47"
     inkscape:window-y="24"
     inkscape:window-maximized="1"
     inkscape:current-layer="svg2"
     fit-margin-top="0"
     fit-margin-left="0"
     fit-margin-right="0"
     fit-margin-bottom="0" /><g
     transform="translate(-14.27,-14.174)"
     id="Ebene_2"
     style="fill:#ffffff;fill-opacity:1"><path
       inkscape:connector-curvature="0"
       d="m 155.77,85.039 c 0,-7.828 6.345,-14.174 14.173,-14.174 l 42.52,0 0,113.386 c 0,15.655 12.691,28.347 28.347,28.347 l 14.544,0.284 c 7.827,0 14.173,6.346 14.173,14.173 l 0,13.89 -64.149,0 c -27.397,0 -49.607,-22.21 -49.607,-49.606 l -10e-4,-106.3 z"
       id="path5"
       style="fill:#ffffff;fill-opacity:1" /><path
       inkscape:connector-curvature="0"
       d="m 14.271,241.229 63.78,0 c 27.396,0 49.606,-22.21 49.606,-49.606 L 127.656,71.15 c 0,-15.655 12.691,-28.347 28.347,-28.347 l 56.693,0 0,-14.173 c 0,-7.828 -6.346,-14.174 -14.174,-14.174 l -77.952,0 c -27.397,0 -49.606,22.21 -49.606,49.606 l 0,120.473 c 0,15.655 -12.691,28.347 -28.347,28.347 l -14.173,0 c -7.828,0 -14.174,6.346 -14.174,14.173 l 0,14.174"
       id="path7"
       style="fill:#ffffff;fill-opacity:1" /></g><g
     transform="translate(-14.27,-14.174)"
     id="g10"
     style="fill:#ffffff;fill-opacity:1"><path
       inkscape:connector-curvature="0"
       id="path12"
       d="m 285.094,29.055 c 0,0 -13.989,-1.587 -19.743,-1.587 -7.342,0 -10.814,2.183 -10.814,6.647 0,4.266 2.679,5.854 13.989,9.425 14.584,4.663 19.049,8.73 19.049,20.636 0,13.989 -10.021,20.835 -24.01,20.835 -7.54,0 -20.834,-2.778 -20.834,-2.778 L 244.12,70.03 c 0,0 12.302,1.688 19.346,1.688 7.342,0 10.517,-1.984 10.517,-7.243 0,-4.167 -2.381,-6.151 -12.104,-8.929 -15.18,-4.365 -20.934,-9.524 -20.934,-21.231 0,-13.097 9.326,-20.141 24.406,-20.141 7.639,0 20.834,2.679 20.834,2.679 l -1.091,12.202 z"
       style="fill:#ffffff;fill-opacity:1" /><path
       inkscape:connector-curvature="0"
       id="path14"
       d="m 289.559,15.363 49.606,0 0,13.195 -17.858,0 0,55.262 -13.691,0 0,-55.261 -18.057,0 0,-13.196 z"
       style="fill:#ffffff;fill-opacity:1" /><path
       inkscape:connector-curvature="0"
       id="path16"
       d="m 345.117,15.363 43.456,0 0,13.097 -29.963,0 0,15.278 24.01,0 0,12.799 -24.01,0 0,14.188 29.963,0 0,13.095 -43.456,0 0,-68.457 z"
       style="fill:#ffffff;fill-opacity:1" /><path
       inkscape:connector-curvature="0"
       id="path18"
       d="m 399.982,15.363 43.455,0 0,13.097 -29.963,0 0,19.743 24.01,0 0,12.997 -24.01,0 0,22.62 -13.492,0 0,-68.457 z"
       style="fill:#ffffff;fill-opacity:1" /><path
       inkscape:connector-curvature="0"
       id="path20"
       d="m 463.577,15.363 25.993,0 14.882,68.457 -13.692,0 -3.075,-11.509 -23.018,0 -2.579,11.509 -13.691,0 15.18,-68.457 z m 3.967,43.753 17.562,0 -6.449,-31.152 -4.465,0 -6.648,31.152 z"
       style="fill:#ffffff;fill-opacity:1" /><path
       inkscape:connector-curvature="0"
       id="path22"
       d="m 513.38,15.363 21.528,0 18.95,51.194 1.488,0 0,-51.194 13.691,0 0,68.457 -20.835,0 -19.645,-51.193 -1.487,0 0,51.193 -13.69,0 0,-68.457 z"
       style="fill:#ffffff;fill-opacity:1" /></g><path
     style="fill:#ffffff;fill-opacity:1"
     d="m 226.675,170.075 0,-68.457 13.691,0 0,55.262 24.704,0 0,13.195 -38.395,0 z"
     id="path26"
     inkscape:connector-curvature="0" /><rect
     id="rect32"
     height="13.096"
     width="12.699"
     y="85.014"
     x="283.52301"
     style="fill:#ffffff;fill-opacity:1" /><rect
     id="rect34"
     height="13.096"
     width="12.699"
     y="85.014"
     x="304.95398"
     style="fill:#ffffff;fill-opacity:1" /><path
     inkscape:connector-curvature="0"
     id="path36"
     d="m 300.588,100.428 c -21.232,0 -27.978,12.897 -27.978,35.915 0,23.018 6.746,34.923 27.978,34.923 21.231,0 27.978,-11.905 27.978,-34.923 0,-23.018 -6.746,-35.915 -27.978,-35.915 z m 0,57.642 c -11.112,0 -13.89,-6.944 -13.89,-21.728 0,-14.782 2.778,-22.72 13.89,-22.72 11.111,0 13.89,7.938 13.89,22.72 0,14.784 -2.778,21.728 -13.89,21.728 z"
     style="fill:#ffffff;fill-opacity:1" /><path
     style="fill:#ffffff;fill-opacity:1"
     d="m 378.866,141.8 -25.101,0 0,28.275 -13.691,0 0,-68.457 13.691,0 0,26.986 25.101,0 0,-26.986 13.691,0 0,68.457 -13.691,0 0,-28.275 z"
     id="path38"
     inkscape:connector-curvature="0" /><path
     style="fill:#ffffff;fill-opacity:1"
     d="m 406.447,101.618 43.455,0 0,13.097 -29.963,0 0,15.278 24.01,0 0,12.799 -24.01,0 0,14.188 29.963,0 0,13.096 -43.455,0 0,-68.458 z"
     id="path40"
     inkscape:connector-curvature="0" /><path
     style="fill:#ffffff;fill-opacity:1"
     d="m 488.099,147.951 -13.097,0 0,22.124 -13.69,0 0,-68.457 26.191,0 c 16.172,0 23.812,6.549 23.812,22.72 0,10.12 -3.771,15.676 -9.922,19.545 l 9.624,26.192 -14.981,0 -7.937,-22.124 z m -0.596,-33.336 -12.501,0 0,20.339 12.699,0 c 6.846,0 9.624,-4.267 9.624,-10.418 0,-6.548 -3.274,-9.921 -9.822,-9.921 z"
     id="path42"
     inkscape:connector-curvature="0" /><path
     style="fill:#ffffff;fill-opacity:1"
     d="m 562.408,115.309 c 0,0 -13.989,-1.587 -19.743,-1.587 -7.342,0 -10.814,2.183 -10.814,6.647 0,4.266 2.679,5.854 13.989,9.425 14.584,4.663 19.049,8.73 19.049,20.636 0,13.989 -10.021,20.835 -24.01,20.835 -7.54,0 -20.834,-2.778 -20.834,-2.778 l 1.389,-12.203 c 0,0 12.302,1.688 19.347,1.688 7.342,0 10.517,-1.984 10.517,-7.243 0,-4.167 -2.382,-6.151 -12.104,-8.929 -15.18,-4.365 -20.934,-9.524 -20.934,-21.231 0,-13.097 9.326,-20.141 24.406,-20.141 7.64,0 20.835,2.679 20.835,2.679 l -1.093,12.202 z"
     id="path44"
     inkscape:connector-curvature="0" /></svg>