<?xml version="1.0" standalone="no"?>
<!DOCTYPE svg PUBLIC "-//W3C//DTD SVG 20010904//EN"
 "http://www.w3.org/TR/2001/REC-SVG-20010904/DTD/svg10.dtd">
<svg version="1.0" xmlns="http://www.w3.org/2000/svg"
 width="1020.000000pt" height="1020.000000pt" viewBox="0 0 1020.000000 1020.000000"
 preserveAspectRatio="xMidYMid meet">
<metadata>
Created by potrace 1.11, written by Peter Selinger 2001-2013
</metadata>
<g transform="translate(0.000000,1020.000000) scale(0.100000,-0.100000)"
fill="#000000" stroke="none">
<path d="M3975 9610 c-126 -19 -264 -51 -328 -75 -20 -8 -38 -15 -40 -14 -19
4 -288 -117 -339 -153 -16 -11 -28 -17 -28 -13 0 3 -10 -3 -22 -15 -12 -11
-26 -20 -31 -20 -5 0 -21 -9 -35 -20 -15 -12 -61 -46 -102 -77 -41 -31 -79
-62 -83 -70 -4 -7 -12 -13 -17 -13 -8 0 -138 -128 -196 -192 -39 -43 -156
-198 -149 -198 3 0 -5 -12 -18 -26 -49 -53 -212 -398 -232 -494 -2 -8 -4 -15
-5 -15 -2 0 -8 -22 -34 -140 -25 -115 -32 -158 -43 -265 -3 -36 -7 -1197 -8
-2580 -2 -2285 -4 -2573 -21 -2619 -2 -8 -7 -30 -10 -50 -3 -20 -10 -44 -15
-53 -5 -10 -8 -18 -5 -18 3 0 -9 -33 -25 -73 -46 -113 -53 -127 -61 -127 -5 0
-8 -6 -8 -12 0 -17 -85 -142 -130 -192 -49 -54 -118 -119 -165 -155 -22 -17
-44 -34 -50 -39 -5 -4 -30 -19 -55 -32 -25 -14 -47 -27 -50 -30 -23 -23 -187
-85 -277 -104 -124 -27 -146 -29 -523 -31 -314 -2 -385 -5 -439 -20 -65 -17
-173 -66 -201 -91 -94 -85 -142 -145 -178 -224 -46 -100 -51 -145 -52 -482
l-1 -319 1383 4 c761 1 1392 6 1403 9 11 3 40 9 65 12 100 14 207 39 294 68
32 11 63 21 70 23 31 6 189 76 266 118 107 57 114 61 120 67 3 3 41 30 85 60
44 30 85 59 92 65 6 5 33 28 59 50 148 124 330 340 421 500 54 94 108 205 138
285 18 47 36 94 40 105 5 11 7 24 6 28 0 4 4 17 10 29 6 11 13 30 15 42 2 11
12 62 23 111 19 88 25 127 38 250 3 33 7 1194 8 2580 2 1386 5 2531 7 2545 4
21 19 104 23 120 8 37 39 128 47 138 6 6 8 12 5 12 -9 0 43 106 82 170 78 127
193 254 291 320 12 8 28 20 34 26 7 6 28 19 46 29 19 10 37 21 40 24 18 24
226 102 325 122 33 7 67 14 75 17 8 2 555 5 1215 7 660 2 1202 3 1205 4 7 1 3
620 -4 654 -3 15 -8 39 -12 54 -6 29 -44 125 -53 133 -4 3 -12 17 -20 31 -16
33 -117 139 -131 139 -5 0 -10 3 -10 8 0 15 -116 71 -190 91 -75 21 -82 21
-1745 20 -1550 -1 -1679 -3 -1790 -19z"/>
<path d="M6185 7361 c-2 -2 -17 -4 -32 -6 -93 -9 -216 -66 -301 -139 -51 -45
-169 -226 -155 -239 2 -3 0 -14 -6 -25 -5 -10 -13 -48 -17 -83 -12 -113 -6
-4543 6 -4556 1 -2 3 -11 4 -20 8 -73 20 -141 42 -223 13 -52 26 -102 28 -110
14 -56 87 -233 135 -325 48 -91 141 -245 161 -265 3 -3 23 -27 45 -55 91 -115
202 -227 324 -327 12 -10 26 -18 31 -18 6 0 10 -4 10 -9 0 -8 84 -67 150 -106
10 -6 25 -17 34 -24 9 -7 16 -10 16 -7 0 4 13 -2 29 -13 101 -72 438 -194 596
-216 11 -2 34 -6 50 -10 17 -3 46 -8 65 -11 19 -3 657 -8 1418 -10 l1383 -5
-1 314 c-1 348 -7 395 -62 507 -46 93 -116 170 -203 225 -50 31 -122 62 -160
68 -11 1 -26 6 -34 11 -7 5 -185 10 -395 11 -209 2 -399 6 -421 9 -22 3 -51 8
-65 10 -14 2 -45 9 -70 16 -25 7 -52 14 -60 16 -82 19 -274 117 -343 175 -106
87 -111 92 -175 163 -44 49 -122 159 -122 172 0 4 -6 15 -13 23 -21 25 -75
154 -98 234 -22 79 -25 92 -37 184 -5 34 -8 1098 -8 2363 1 1265 -1 2300 -4
2301 -18 3 -1742 3 -1745 0z"/>
</g>
</svg>
